# Blender 3.1.0
# www.blender.org
o Cube.001
v -0.391410 -0.580484 0.709653
v -0.266587 3.482906 0.483340
v -0.391410 -0.580484 -0.709653
v -0.266587 3.482906 -0.483340
v 0.391410 -0.580484 0.709653
v 0.266587 3.482906 0.483340
v 0.391410 -0.580484 -0.709653
v 0.266587 3.482906 -0.483340
v -0.749586 3.569466 1.359051
v -0.749586 3.569466 -1.359051
v 0.749586 3.569466 -1.359051
v 0.749586 3.569466 1.359051
v 0.000000 5.954229 0.000000
vn -0.5802 0.0178 -0.0000
vn -0.0000 0.0323 -0.5796
vn 0.5802 0.0178 -0.0000
vn -0.0000 0.0323 0.5796
vn -0.0000 -0.5805 -0.0000
vn -0.1024 -0.5714 -0.0000
vn -0.0000 0.2874 -0.5043
vn -0.0000 -0.5777 0.0571
vn -0.0000 -0.5777 -0.0571
vn 0.1024 -0.5714 -0.0000
vn 0.5538 0.1741 -0.0000
vn -0.5538 0.1741 -0.0000
vn -0.0000 0.2874 0.5043
vt 0.375000 0.000000
vt 0.375000 1.000000
vt 0.125000 0.750000
vt 0.625000 0.000000
vt 0.625000 1.000000
vt 0.375000 0.250000
vt 0.125000 0.500000
vt 0.625000 0.250000
vt 0.375000 0.750000
vt 0.625000 0.750000
vt 0.375000 0.500000
vt 0.625000 0.500000
vt 0.625000 0.000000
vt 0.625000 1.000000
vt 0.625000 0.250000
vt 0.625000 0.500000
vt 0.625000 0.750000
vt 0.625000 0.500000
vt 0.625000 0.750000
vt 0.625000 0.250000
vt 0.625000 1.000000
s 0
f 1/1/1 2/4/1 4/8/1 3/6/1
f 3/6/2 4/8/2 8/12/2 7/11/2
f 7/11/3 8/12/3 6/10/3 5/9/3
f 5/9/4 6/10/4 2/5/4 1/2/4
f 3/7/5 7/11/5 5/9/5 1/3/5
f 4/8/6 2/4/6 9/13/6 10/15/6
f 11/16/7 10/15/7 13/18/7
f 2/5/8 6/10/8 12/17/8 9/14/8
f 8/12/9 4/8/9 10/15/9 11/16/9
f 6/10/10 8/12/10 11/16/10 12/17/10
f 12/17/11 11/16/11 13/19/11
f 10/15/12 9/13/12 13/20/12
f 9/14/13 12/17/13 13/21/13
