# Blender 3.1.0
# www.blender.org
o Tree.003
v -0.000000 -0.203859 -0.203859
v -0.000000 0.203859 -0.203859
v 0.144150 -0.203859 -0.144150
v 0.144150 0.203859 -0.144150
v 0.203859 -0.203859 0.000000
v 0.203859 0.203859 0.000000
v 0.144150 -0.203859 0.144150
v 0.144150 0.203859 0.144150
v -0.000000 -0.203859 0.203859
v -0.000000 0.203859 0.203859
v -0.144150 -0.203859 0.144150
v -0.144150 0.203859 0.144150
v -0.203859 -0.203859 0.000000
v -0.203859 0.203859 0.000000
v -0.144150 -0.203859 -0.144150
v -0.144150 0.203859 -0.144150
v 0.101072 1.503909 0.012260
v -0.017164 1.503909 -0.036715
v 0.150047 1.503909 0.130496
v 0.101072 1.503909 0.248732
v -0.017164 1.503909 0.297707
v -0.135400 1.503909 0.248732
v -0.184375 1.503909 0.130496
v -0.135400 1.503909 0.012260
v 0.481444 1.503909 -0.368112
v 0.034775 1.525727 -0.607570
v 0.687974 1.503909 0.130496
v 0.481444 1.503909 0.629104
v -0.017164 1.503909 0.835634
v -0.515772 1.503909 0.629104
v -0.722302 1.503909 0.130496
v -0.515772 1.503909 -0.368112
v 0.564766 1.664792 -0.451433
v -0.017164 1.664792 -0.692476
v 0.805809 1.664792 0.130496
v 0.564766 1.664792 0.712425
v -0.017164 1.664792 0.953468
v -0.599093 1.664792 0.712425
v -0.851142 1.676358 0.194143
v -0.599093 1.664792 -0.451433
v 0.626649 1.808473 -0.513317
v -0.017164 1.808473 -0.779993
v 0.893325 1.808473 0.130496
v 0.626649 1.808473 0.774308
v -0.017164 1.808473 1.040985
v -0.660976 1.808473 0.774309
v -0.927652 1.808473 0.130496
v -0.660977 1.808473 -0.513317
v 0.604468 1.996896 -0.489311
v -0.033139 1.996896 -0.768407
v 0.868574 1.996896 0.184484
v 0.604468 1.996896 0.858280
v -0.044145 2.008462 1.158212
v -0.708803 1.999048 0.945105
v -0.934853 1.996896 0.184484
v -0.670747 1.996896 -0.489311
v 0.617441 2.155583 -0.531325
v -0.036496 2.155583 -0.817568
v 0.888311 2.155583 0.159727
v 0.617441 2.155583 0.850779
v -0.047502 2.167150 1.157859
v -0.733026 2.194305 0.935876
v -0.961303 2.155583 0.159727
v -0.690434 2.155583 -0.531325
v 0.571112 2.293843 -0.472215
v -0.036496 2.293843 -0.733974
v 0.822792 2.293843 0.159727
v 0.571112 2.293843 0.791669
v -0.175540 2.330476 1.090045
v -0.631944 2.358510 0.825719
v -0.895784 2.293843 0.159727
v -0.644105 2.293843 -0.472215
v 0.532119 2.395616 -0.415953
v -0.030789 2.395616 -0.658455
v 0.765283 2.395616 0.169499
v 0.532119 2.395616 0.754950
v -0.118721 2.447221 0.971026
v -0.593697 2.441985 0.734820
v -0.826861 2.395616 0.169499
v -0.593697 2.395616 -0.415953
v 0.467304 2.552141 -0.348542
v -0.030789 2.552141 -0.563122
v 0.673621 2.552141 0.169499
v 0.467304 2.552141 0.687540
v -0.099758 2.558625 0.894342
v -0.528882 2.552141 0.687540
v -0.735199 2.552141 0.169499
v -0.528882 2.552141 -0.348542
v 0.379325 2.640994 -0.257040
v -0.030789 2.640994 -0.433718
v 0.500241 2.625081 0.169749
v 0.379325 2.640994 0.596038
v -0.030789 2.640994 0.772716
v -0.440903 2.640994 0.596038
v -0.610778 2.640994 0.169499
v -0.440903 2.640994 -0.257040
v 0.346723 2.676572 -0.190691
v -0.000096 2.676572 -0.340101
v 0.441420 2.660659 0.170268
v 0.346723 2.676572 0.530726
v -0.000096 2.676572 0.680136
v -0.346915 2.676572 0.530726
v -0.490571 2.676572 0.170017
v -0.346915 2.676572 -0.190691
v 0.172399 2.735754 -0.009385
v -0.000096 2.735754 -0.083696
v 0.243848 2.735754 0.170017
v 0.172399 2.735754 0.349420
v -0.000096 2.735754 0.423731
v -0.172591 2.735754 0.349420
v -0.244040 2.735754 0.170017
v -0.172591 2.735754 -0.009385
v -0.000096 2.803624 0.170017
vn 0.3827 -0.0000 -0.9239
vn 0.9239 -0.0000 -0.3827
vn 0.9239 -0.0000 0.3827
vn 0.3827 -0.0000 0.9239
vn -0.3827 -0.0000 0.9239
vn -0.9239 -0.0000 0.3827
vn -0.9226 0.0522 -0.3822
vn -0.9239 -0.0000 -0.3827
vn -0.3827 -0.0000 -0.9239
vn -0.0000 -1.0000 -0.0000
vn 0.9212 0.0764 -0.3816
vn -0.3817 -0.0716 0.9215
vn -0.3802 0.1130 -0.9180
vn 0.3798 0.1229 -0.9169
vn 0.9239 -0.0002 0.3827
vn -0.9236 -0.0246 0.3826
vn 0.3820 -0.0615 0.9221
vn 0.3618 -0.4845 -0.7964
vn -0.0218 -0.9992 -0.0328
vn 0.0198 -0.9994 -0.0297
vn -0.7851 -0.5356 -0.3111
vn -0.3122 -0.5679 -0.7616
vn -0.7282 -0.6053 0.3215
vn 0.3169 -0.5604 0.7652
vn 0.7652 -0.5604 -0.3169
vn -0.7929 -0.5231 -0.3125
vn -0.3169 -0.5604 0.7652
vn 0.7652 -0.5604 0.3169
vn 0.9108 0.1894 -0.3669
vn -0.3335 -0.4904 0.8051
vn 0.8051 -0.4904 0.3335
vn 0.3335 -0.4904 -0.8051
vn -0.3335 -0.4904 -0.8051
vn -0.8322 -0.4153 0.3674
vn 0.3335 -0.4904 0.8051
vn 0.8051 -0.4904 -0.3335
vn 0.9294 -0.0588 0.3643
vn -0.9270 0.0355 -0.3734
vn -0.2704 -0.6044 0.7494
vn 0.9274 -0.0213 0.3736
vn 0.3887 0.1256 -0.9127
vn -0.3911 0.0600 -0.9184
vn -0.8950 -0.3165 0.3145
vn 0.3666 -0.3909 0.8443
vn -0.8467 0.4139 -0.3344
vn 0.3866 -0.2654 -0.8832
vn -0.3849 -0.2805 -0.8793
vn -0.9525 -0.1090 0.2845
vn 0.4196 0.0097 0.9077
vn 0.9174 -0.1702 -0.3596
vn -0.9108 -0.2075 -0.3570
vn -0.3067 0.0019 0.9518
vn 0.3219 0.5319 0.7832
vn -0.3365 0.4281 0.8388
vn 0.8467 0.4139 0.3344
vn 0.3506 0.4752 -0.8070
vn -0.3506 0.4752 -0.8070
vn -0.8113 0.5338 0.2386
vn 0.3499 0.5280 0.7738
vn 0.8467 0.4139 -0.3344
vn -0.3453 0.4882 -0.8015
vn 0.8104 0.4889 -0.3228
vn -0.7737 0.5536 -0.3081
vn -0.2962 0.7546 0.5856
vn 0.8344 0.4396 0.3323
vn 0.3303 0.5504 -0.7668
vn -0.3236 0.5755 -0.7511
vn -0.7803 0.5670 0.2638
vn -0.2341 0.8348 0.4983
vn -0.7981 0.5217 0.3014
vn 0.3066 0.4910 0.8154
vn 0.8161 0.4779 -0.3250
vn -0.8161 0.4779 -0.3250
vn -0.3714 0.5563 0.7433
vn 0.8161 0.4779 0.3250
vn 0.3453 0.4882 -0.8015
vn 0.5545 0.8237 -0.1185
vn 0.4813 0.8633 0.1522
vn 0.2369 0.8009 -0.5499
vn -0.2369 0.8009 -0.5499
vn -0.5662 0.7928 0.2255
vn 0.2387 0.7673 0.5952
vn 0.4811 0.8634 -0.1521
vn -0.5662 0.7928 -0.2255
vn -0.0964 0.9698 -0.2239
vn -0.2816 0.9530 -0.1121
vn -0.1360 0.9390 0.3158
vn 0.5559 0.8227 0.1191
vn 0.1717 0.9009 -0.3987
vn -0.1349 0.9401 -0.3131
vn -0.2824 0.9527 0.1125
vn 0.1736 0.8986 0.4029
vn 0.2665 0.9580 0.1061
vn -0.2324 0.9682 0.0926
vn 0.0964 0.9698 0.2239
vn 0.3097 0.9485 -0.0673
vn -0.2324 0.9682 -0.0926
vn -0.0964 0.9698 0.2239
vn 0.3096 0.9485 0.0673
vn 0.0964 0.9698 -0.2239
vn 0.1106 0.9601 -0.2568
vn -0.1106 0.9601 -0.2568
vn -0.2665 0.9580 0.1061
vn 0.1106 0.9601 0.2568
vn 0.2665 0.9580 -0.1061
vn -0.2665 0.9580 -0.1061
vn -0.1106 0.9601 0.2568
vt 0.512211 0.924180
vt 0.504111 0.924180
vt 0.510186 0.924099
vt 0.504111 0.928230
vt 0.512211 0.928230
vt 0.511199 0.924180
vt 0.511561 0.923530
vt 0.511199 0.928230
vt 0.510186 0.924180
vt 0.512130 0.922155
vt 0.510186 0.928230
vt 0.509174 0.924180
vt 0.511561 0.920780
vt 0.509174 0.928230
vt 0.508161 0.924180
vt 0.510186 0.920211
vt 0.508161 0.928230
vt 0.507149 0.924180
vt 0.508812 0.920780
vt 0.507149 0.928230
vt 0.506136 0.924180
vt 0.508242 0.922155
vt 0.506136 0.928230
vt 0.505124 0.924180
vt 0.508812 0.923530
vt 0.505124 0.928230
vt 0.511199 0.928230
vt 0.805007 0.940745
vt 0.504111 0.928230
vt 0.512211 0.928230
vt 0.806020 0.940745
vt 0.797919 0.940745
vt 0.510186 0.928230
vt 0.803995 0.940745
vt 0.509174 0.928230
vt 0.802982 0.940745
vt 0.508161 0.928230
vt 0.801969 0.940745
vt 0.507149 0.928230
vt 0.800957 0.940745
vt 0.506136 0.928230
vt 0.799944 0.940745
vt 0.505124 0.928230
vt 0.798932 0.940745
vt 0.805007 0.940745
vt 0.806020 0.940745
vt 0.797919 0.940745
vt 0.803995 0.940745
vt 0.802982 0.940745
vt 0.801969 0.940745
vt 0.800957 0.940745
vt 0.799944 0.940745
vt 0.798932 0.940745
vt 0.805007 0.940745
vt 0.806020 0.940745
vt 0.797919 0.940745
vt 0.803995 0.940745
vt 0.802982 0.940745
vt 0.801969 0.940745
vt 0.800957 0.940745
vt 0.799944 0.940745
vt 0.798932 0.940745
vt 0.805007 0.940745
vt 0.806020 0.940745
vt 0.797919 0.940745
vt 0.803995 0.940745
vt 0.802982 0.940745
vt 0.801969 0.940745
vt 0.800957 0.940745
vt 0.799944 0.940745
vt 0.798932 0.940745
vt 0.805007 0.940745
vt 0.806020 0.940745
vt 0.797919 0.940745
vt 0.803995 0.940745
vt 0.802982 0.940745
vt 0.801969 0.940745
vt 0.800957 0.940745
vt 0.799944 0.940745
vt 0.798932 0.940745
vt 0.805007 0.940745
vt 0.806020 0.940745
vt 0.797919 0.940745
vt 0.803995 0.940745
vt 0.802982 0.940745
vt 0.801969 0.940745
vt 0.800957 0.940745
vt 0.799944 0.940745
vt 0.798932 0.940745
vt 0.805007 0.940745
vt 0.806020 0.940745
vt 0.797919 0.940745
vt 0.803995 0.940745
vt 0.802982 0.940745
vt 0.801969 0.940745
vt 0.800957 0.940745
vt 0.799944 0.940745
vt 0.798932 0.940745
vt 0.805007 0.940745
vt 0.797919 0.940745
vt 0.806020 0.940745
vt 0.803995 0.940745
vt 0.802982 0.940745
vt 0.801969 0.940745
vt 0.800957 0.940745
vt 0.799944 0.940745
vt 0.798932 0.940745
vt 0.805007 0.940745
vt 0.806020 0.940745
vt 0.797919 0.940745
vt 0.803995 0.940745
vt 0.802982 0.940745
vt 0.801969 0.940745
vt 0.800957 0.940745
vt 0.799944 0.940745
vt 0.798932 0.940745
vt 0.805007 0.940745
vt 0.806020 0.940745
vt 0.797919 0.940745
vt 0.803995 0.940745
vt 0.802982 0.940745
vt 0.801969 0.940745
vt 0.800957 0.940745
vt 0.799944 0.940745
vt 0.798932 0.940745
vt 0.805007 0.940745
vt 0.797919 0.940745
vt 0.806020 0.940745
vt 0.803995 0.940745
vt 0.802982 0.940745
vt 0.801969 0.940745
vt 0.800957 0.940745
vt 0.799944 0.940745
vt 0.798932 0.940745
vt 0.805007 0.940745
vt 0.806020 0.940745
vt 0.797919 0.940745
vt 0.803995 0.940745
vt 0.802982 0.940745
vt 0.801969 0.940745
vt 0.800957 0.940745
vt 0.799944 0.940745
vt 0.798932 0.940745
vt 0.802982 0.940745
vt 0.805007 0.940745
vt 0.797919 0.940745
vt 0.799944 0.940745
vt 0.801969 0.940745
vt 0.803995 0.940745
vt 0.798932 0.940745
vt 0.800957 0.940745
s 0
f 1/1/1 2/5/1 4/8/1 3/6/1
f 3/6/2 4/8/2 6/11/2 5/9/2
f 5/9/3 6/11/3 8/14/3 7/12/3
f 7/12/4 8/14/4 10/17/4 9/15/4
f 9/15/5 10/17/5 12/20/5 11/18/5
f 11/18/6 12/20/6 14/23/6 13/21/6
f 16/26/7 14/23/7 23/41/7 24/43/7
f 13/21/8 14/23/8 16/26/8 15/24/8
f 15/24/9 16/26/9 2/4/9 1/2/9
f 1/3/10 3/7/10 5/10/10 7/13/10 9/16/10 11/19/10 13/22/10 15/25/10
f 23/42/10 22/40/10 30/51/10 31/52/10
f 6/11/11 4/8/11 17/27/11 19/33/11
f 12/20/12 10/17/12 21/37/12 22/39/12
f 2/4/13 16/26/13 24/43/13 18/29/13
f 4/8/14 2/5/14 18/30/14 17/27/14
f 8/14/15 6/11/15 19/33/15 20/35/15
f 14/23/16 12/20/16 22/39/16 23/41/16
f 10/17/17 8/14/17 20/35/17 21/37/17
f 25/45/18 26/46/18 34/55/18 33/54/18
f 21/38/10 20/36/10 28/49/10 29/50/10
f 19/34/10 17/28/10 25/45/10 27/48/10
f 24/44/10 23/42/10 31/52/10 32/53/10
f 22/40/10 21/38/10 29/50/10 30/51/10
f 20/36/10 19/34/10 27/48/10 28/49/10
f 17/28/19 18/31/19 26/46/19 25/45/19
f 18/32/20 24/44/20 32/53/20 26/47/20
f 40/62/21 39/61/21 47/70/21 48/71/21
f 26/47/22 32/53/22 40/62/22 34/56/22
f 31/52/23 30/51/23 38/60/23 39/61/23
f 29/50/24 28/49/24 36/58/24 37/59/24
f 27/48/25 25/45/25 33/54/25 35/57/25
f 32/53/26 31/52/26 39/61/26 40/62/26
f 30/51/27 29/50/27 37/59/27 38/60/27
f 28/49/28 27/48/28 35/57/28 36/58/28
f 43/66/29 41/63/29 49/72/29 51/75/29
f 38/60/30 37/59/30 45/68/30 46/69/30
f 36/58/31 35/57/31 43/66/31 44/67/31
f 33/54/32 34/55/32 42/64/32 41/63/32
f 34/56/33 40/62/33 48/71/33 42/65/33
f 39/61/34 38/60/34 46/69/34 47/70/34
f 37/59/35 36/58/35 44/67/35 45/68/35
f 35/57/36 33/54/36 41/63/36 43/66/36
f 52/76/37 51/75/37 59/84/37 60/85/37
f 48/71/38 47/70/38 55/79/38 56/80/38
f 46/69/39 45/68/39 53/77/39 54/78/39
f 44/67/40 43/66/40 51/75/40 52/76/40
f 41/63/41 42/64/41 50/73/41 49/72/41
f 42/65/42 48/71/42 56/80/42 50/74/42
f 47/70/43 46/69/43 54/78/43 55/79/43
f 45/68/44 44/67/44 52/76/44 53/77/44
f 64/89/45 63/88/45 71/97/45 72/98/45
f 49/72/46 50/73/46 58/82/46 57/81/46
f 50/74/47 56/80/47 64/89/47 58/83/47
f 55/79/48 54/78/48 62/87/48 63/88/48
f 53/77/49 52/76/49 60/85/49 61/86/49
f 51/75/50 49/72/50 57/81/50 59/84/50
f 56/80/51 55/79/51 63/88/51 64/89/51
f 54/78/52 53/77/52 61/86/52 62/87/52
f 69/95/53 68/94/53 76/103/53 77/104/53
f 62/87/54 61/86/54 69/95/54 70/96/54
f 60/85/55 59/84/55 67/93/55 68/94/55
f 57/81/56 58/82/56 66/91/56 65/90/56
f 58/83/57 64/89/57 72/98/57 66/92/57
f 63/88/58 62/87/58 70/96/58 71/97/58
f 61/86/59 60/85/59 68/94/59 69/95/59
f 59/84/60 57/81/60 65/90/60 67/93/60
f 74/100/61 80/107/61 88/116/61 82/110/61
f 67/93/62 65/90/62 73/99/62 75/102/62
f 72/98/63 71/97/63 79/106/63 80/107/63
f 70/96/64 69/95/64 77/104/64 78/105/64
f 68/94/65 67/93/65 75/102/65 76/103/65
f 65/90/66 66/91/66 74/101/66 73/99/66
f 66/92/67 72/98/67 80/107/67 74/100/67
f 71/97/68 70/96/68 78/105/68 79/106/68
f 86/114/69 85/113/69 93/122/69 94/123/69
f 79/106/70 78/105/70 86/114/70 87/115/70
f 77/104/71 76/103/71 84/112/71 85/113/71
f 75/102/72 73/99/72 81/108/72 83/111/72
f 80/107/73 79/106/73 87/115/73 88/116/73
f 78/105/74 77/104/74 85/113/74 86/114/74
f 76/103/75 75/102/75 83/111/75 84/112/75
f 73/99/76 74/101/76 82/109/76 81/108/76
f 91/120/77 89/117/77 97/126/77 99/129/77
f 84/112/78 83/111/78 91/120/78 92/121/78
f 81/108/79 82/109/79 90/118/79 89/117/79
f 82/110/80 88/116/80 96/125/80 90/119/80
f 87/115/81 86/114/81 94/123/81 95/124/81
f 85/113/82 84/112/82 92/121/82 93/122/82
f 83/111/83 81/108/83 89/117/83 91/120/83
f 88/116/84 87/115/84 95/124/84 96/125/84
f 98/127/85 104/134/85 112/143/85 106/137/85
f 96/125/86 95/124/86 103/133/86 104/134/86
f 94/123/87 93/122/87 101/131/87 102/132/87
f 92/121/88 91/120/88 99/129/88 100/130/88
f 89/117/89 90/118/89 98/128/89 97/126/89
f 90/119/90 96/125/90 104/134/90 98/127/90
f 95/124/91 94/123/91 102/132/91 103/133/91
f 93/122/92 92/121/92 100/130/92 101/131/92
f 108/139/93 107/138/93 113/144/93
f 103/133/94 102/132/94 110/141/94 111/142/94
f 101/131/95 100/130/95 108/139/95 109/140/95
f 99/129/96 97/126/96 105/135/96 107/138/96
f 104/134/97 103/133/97 111/142/97 112/143/97
f 102/132/98 101/131/98 109/140/98 110/141/98
f 100/130/99 99/129/99 107/138/99 108/139/99
f 97/126/100 98/128/100 106/136/100 105/135/100
f 105/135/101 106/136/101 113/145/101
f 106/137/102 112/143/102 113/146/102
f 111/142/103 110/141/103 113/147/103
f 109/140/104 108/139/104 113/148/104
f 107/138/105 105/135/105 113/149/105
f 112/143/106 111/142/106 113/150/106
f 110/141/107 109/140/107 113/151/107
