# Blender 3.1.0
# www.blender.org
o Cylinder
v -0.020000 0.026571 -0.020000
v 0.020000 0.026571 -0.020000
v -0.020000 0.009250 -0.010000
v 0.020000 0.009250 -0.010000
v -0.020000 0.009250 0.010000
v 0.020000 0.009250 0.010000
v -0.020000 0.026571 0.020000
v 0.020000 0.026571 0.020000
v -0.020000 0.043891 0.010000
v 0.020000 0.043891 0.010000
v -0.020000 0.043891 -0.010000
v 0.020000 0.043891 -0.010000
v -0.035778 0.028137 -0.019898
v -0.041580 0.010901 -0.011576
v -0.042858 0.009335 0.008322
v -0.038333 0.025004 0.019898
v -0.032530 0.042240 0.011576
v -0.031253 0.043806 -0.008322
v -0.055468 0.031366 -0.020678
v -0.052596 0.014721 -0.009969
v -0.052149 0.015634 0.010006
v -0.054575 0.033193 0.019270
v -0.057448 0.049837 0.008560
v -0.057894 0.048924 -0.011414
v -0.072990 0.028674 -0.020164
v -0.070118 0.012029 -0.009454
v -0.069671 0.012942 0.010520
v -0.072097 0.030500 0.019785
v -0.074969 0.047145 0.009075
v -0.075416 0.046232 -0.010899
v -0.084420 0.027116 -0.015123
v -0.082224 0.014389 -0.006934
v -0.081883 0.015088 0.008338
v -0.083737 0.028513 0.015422
v -0.085934 0.041239 0.007233
v -0.086275 0.040541 -0.008039
vn -0.0000 -0.5000 -0.8660
vn -0.0000 -1.0000 -0.0000
vn -0.0000 -0.5000 0.8660
vn -0.0000 0.5000 0.8660
vn 1.0000 -0.0000 -0.0000
vn -0.0000 1.0000 -0.0000
vn -0.0000 0.5000 -0.8660
vn -0.0068 0.4693 0.8830
vn 0.1633 0.5168 -0.8404
vn -0.0360 -0.9985 -0.0404
vn -0.0677 0.9970 0.0370
vn -0.0054 -0.4677 -0.8839
vn -0.0166 -0.5457 0.8378
vn -0.0249 0.5496 -0.8351
vn -0.1529 0.9874 -0.0417
vn 0.1070 0.4799 0.8708
vn -0.4490 -0.8932 -0.0240
vn 0.2371 0.9713 0.0209
vn -0.2511 -0.5029 0.8271
vn -0.1328 -0.4767 -0.8690
vn -0.4162 0.3787 -0.8267
vn 0.0958 -0.4541 0.8858
vn 0.0571 -0.5332 -0.8440
vn -0.0958 0.4541 -0.8858
vn -0.0571 0.5332 0.8440
vn 0.1529 -0.9874 0.0417
vn -0.9880 -0.1518 0.0290
vn -0.3797 0.4534 0.8064
vn -0.1813 -0.9822 0.0490
vn -0.4701 0.8821 -0.0298
vn -0.2353 -0.4788 0.8458
vn -0.2718 -0.5535 -0.7873
vt 0.536677 0.929052
vt 0.537898 0.929052
vt 0.668428 0.900465
vt 0.669649 0.900465
vt 0.536677 0.928442
vt 0.669343 0.900477
vt 0.537898 0.928442
vt 0.536881 0.929052
vt 0.668631 0.900465
vt 0.536881 0.928442
vt 0.669090 0.900624
vt 0.537084 0.929052
vt 0.668835 0.900465
vt 0.537084 0.928442
vt 0.669090 0.900917
vt 0.537288 0.929052
vt 0.669038 0.900465
vt 0.537288 0.928442
vt 0.669343 0.901063
vt 0.537491 0.929052
vt 0.669242 0.900465
vt 0.669597 0.900917
vt 0.537491 0.928442
vt 0.537695 0.929052
vt 0.669445 0.900465
vt 0.669597 0.900624
vt 0.537695 0.928442
vt 0.669649 0.900465
vt 0.668428 0.900465
vt 0.668631 0.900465
vt 0.668835 0.900465
vt 0.669038 0.900465
vt 0.669242 0.900465
vt 0.669445 0.900465
vt 0.668428 0.900465
vt 0.669649 0.900465
vt 0.668631 0.900465
vt 0.668835 0.900465
vt 0.669038 0.900465
vt 0.669242 0.900465
vt 0.669445 0.900465
vt 0.979138 0.929052
vt 0.668428 0.900465
vt 0.669649 0.900465
vt 0.977917 0.929052
vt 0.668631 0.900465
vt 0.978121 0.929052
vt 0.668835 0.900465
vt 0.978324 0.929052
vt 0.669038 0.900465
vt 0.978528 0.929052
vt 0.669242 0.900465
vt 0.978731 0.929052
vt 0.669445 0.900465
vt 0.978935 0.929052
vt 0.979138 0.929052
vt 0.937206 0.743246
vt 0.977917 0.929052
vt 0.936952 0.743393
vt 0.978121 0.929052
vt 0.936952 0.743686
vt 0.978324 0.929052
vt 0.937206 0.743833
vt 0.978528 0.929052
vt 0.937459 0.743686
vt 0.978731 0.929052
vt 0.937459 0.743393
vt 0.978935 0.929052
s 0
f 1/1/1 2/5/1 4/10/1 3/8/1
f 3/8/2 4/10/2 6/14/2 5/12/2
f 5/12/3 6/14/3 8/18/3 7/16/3
f 7/16/4 8/18/4 10/23/4 9/20/4
f 4/11/5 2/6/5 12/26/5 10/22/5 8/19/5 6/15/5
f 9/20/6 10/23/6 12/27/6 11/24/6
f 11/24/7 12/27/7 2/7/7 1/2/7
f 7/17/8 9/21/8 17/33/8 16/32/8
f 18/34/9 13/28/9 19/36/9 24/41/9
f 3/9/10 5/13/10 15/31/10 14/30/10
f 9/21/11 11/25/11 18/34/11 17/33/11
f 1/3/12 3/9/12 14/30/12 13/29/12
f 5/13/13 7/17/13 16/32/13 15/31/13
f 11/25/14 1/4/14 13/28/14 18/34/14
f 23/40/15 24/41/15 30/54/15 29/52/15
f 16/32/16 17/33/16 23/40/16 22/39/16
f 14/30/17 15/31/17 21/38/17 20/37/17
f 17/33/18 18/34/18 24/41/18 23/40/18
f 15/31/19 16/32/19 22/39/19 21/38/19
f 13/29/20 14/30/20 20/37/20 19/35/20
f 30/55/21 25/42/21 31/56/21 36/68/21
f 21/38/22 22/39/22 28/50/22 27/48/22
f 19/35/23 20/37/23 26/46/23 25/43/23
f 24/41/24 19/36/24 25/44/24 30/54/24
f 22/39/25 23/40/25 29/52/25 28/50/25
f 20/37/26 21/38/26 27/48/26 26/46/26
f 31/57/27 32/59/27 33/61/27 34/63/27 35/65/27 36/67/27
f 28/51/28 29/53/28 35/66/28 34/64/28
f 26/47/29 27/49/29 33/62/29 32/60/29
f 29/53/30 30/55/30 36/68/30 35/66/30
f 27/49/31 28/51/31 34/64/31 33/62/31
f 25/45/32 26/47/32 32/60/32 31/58/32
