# Blender 3.1.0
# www.blender.org
o Lake1
v -2.500000 -0.028461 2.500000
v 2.504311 0.003014 2.505480
v -2.500000 -0.028461 -2.500000
v 2.501673 -0.001622 -2.501814
v -2.500000 -0.024926 -2.045455
v -2.500000 -0.003195 -1.590909
v -2.500000 -0.001909 -1.136364
v -2.500000 0.000198 -0.681818
v -2.500000 -0.000932 -0.227273
v -2.500000 -0.005497 0.227273
v -2.500000 -0.015117 0.681818
v -2.500000 -0.024161 1.136364
v -2.500000 -0.027586 1.590909
v -2.500000 -0.028461 2.045455
v -2.045455 -0.028328 2.500000
v -1.590909 -0.006944 2.500000
v -1.136331 0.017071 2.499987
v -0.681813 0.023860 2.499962
v -0.227273 0.026792 2.499972
v 0.227274 0.026549 2.499986
v 0.681823 0.022374 2.499998
v 1.136364 0.014829 2.500000
v 1.590909 0.003390 2.500000
v 2.045597 -0.012943 2.500173
v 2.503811 0.069514 2.051617
v 2.500000 0.120959 1.590909
v 2.500000 0.142609 1.136364
v 2.500000 0.143866 0.681818
v 2.500000 0.139542 0.227273
v 2.500000 0.130586 -0.227273
v 2.498190 0.107696 -0.682295
v 2.500856 0.052165 -1.140642
v 2.507671 0.046522 -1.592411
v 2.504964 0.055490 -2.044039
v 2.046110 -0.004400 -2.500853
v 1.591230 -0.020750 -2.500178
v 1.136279 -0.018966 -2.500042
v 0.681215 0.011413 -2.499997
v 0.226546 0.028873 -2.499609
v -0.227731 0.037661 -2.499145
v -0.682114 0.040824 -2.499142
v -1.136445 0.019029 -2.499793
v -1.590917 0.011331 -2.499992
v -2.045455 -0.018933 -2.500000
v -2.045455 0.012601 2.045455
v -2.045455 0.062276 1.590909
v -2.045455 0.077436 1.136364
v -2.045455 0.084223 0.681818
v -2.045455 0.087307 0.227273
v -2.045455 0.086537 -0.227273
v -2.045455 0.086333 -0.681818
v -2.045264 0.083594 -1.136393
v -2.045423 0.041312 -1.590914
v -2.045455 -0.010245 -2.045455
v -1.590233 0.088004 2.044695
v -1.589773 0.088233 1.589348
v -1.590906 0.040988 1.136361
v -1.590909 0.022096 0.681818
v -1.590909 0.006524 0.227273
v -1.590909 -0.000127 -0.227273
v -1.590871 -0.000907 -0.681824
v -1.586789 0.040503 -1.136181
v -1.587724 0.032909 -1.589184
v -1.590918 0.016120 -2.045422
v -1.133801 0.138256 2.040037
v -1.133451 0.049699 1.583826
v -1.136358 -0.028369 1.136351
v -1.136364 -0.028461 0.681818
v -1.136364 -0.028461 0.227273
v -1.136364 -0.028461 -0.227273
v -1.136364 -0.028461 -0.681818
v -1.134397 0.004417 -1.135100
v -1.134468 0.048429 -1.585916
v -1.136377 0.048388 -2.044113
v -0.681474 0.163615 2.037535
v -0.681688 0.048519 1.584122
v -0.681818 -0.028461 1.136364
v -0.681818 -0.028461 0.681818
v -0.681818 -0.028461 0.227273
v -0.681818 -0.028461 -0.227273
v -0.681818 -0.028461 -0.681818
v -0.681818 -0.028461 -1.136364
v -0.681746 -0.017674 -1.590185
v -0.682306 0.048929 -2.043939
v -0.227263 0.185340 2.039162
v -0.227349 0.047617 1.587444
v -0.227273 -0.028461 1.136364
v -0.227273 -0.028461 0.681818
v -0.227273 -0.028461 0.227273
v -0.227273 -0.028461 -0.227273
v -0.227273 -0.028461 -0.681818
v -0.227273 -0.028461 -1.136364
v -0.227300 -0.025443 -1.590852
v -0.228125 0.062160 -2.043942
v 0.228173 0.208141 2.039690
v 0.227770 0.054233 1.587839
v 0.227273 -0.028461 1.136364
v 0.227273 -0.028461 0.681818
v 0.227273 -0.028461 0.227273
v 0.227273 -0.028461 -0.227273
v 0.227273 -0.028461 -0.681818
v 0.227273 -0.028459 -1.136363
v 0.227208 -0.001770 -1.587638
v 0.225741 0.080882 -2.044126
v 0.683196 0.167578 2.042454
v 0.682580 0.028813 1.589266
v 0.681818 -0.028461 1.136364
v 0.681818 -0.028461 0.681818
v 0.681818 -0.028461 0.227273
v 0.681818 -0.028461 -0.227273
v 0.681818 -0.028461 -0.681818
v 0.681568 -0.014784 -1.134693
v 0.680954 0.069400 -1.579653
v 0.680252 0.108138 -2.044041
v 1.136439 0.100790 2.045335
v 1.136343 -0.005271 1.590611
v 1.136364 -0.028461 1.136364
v 1.136364 -0.028461 0.681818
v 1.135674 -0.025096 0.227403
v 1.135961 -0.026746 -0.227162
v 1.135915 0.063439 -2.045545
v 1.590824 0.114131 2.044692
v 1.589660 0.078760 1.579738
v 1.588699 0.028505 1.133532
v 1.585990 -0.005309 0.681667
v 1.575515 0.044739 0.230215
v 1.571217 0.060187 -0.223126
v 1.592797 0.034501 -2.046472
v 2.045456 0.112003 2.045457
v 2.045450 0.104790 1.590869
v 2.042969 0.067199 1.135015
v 2.036795 0.078973 0.680359
v 2.032007 0.104469 0.227492
v 2.022395 0.171535 -0.228087
v 2.018680 0.228008 -0.688839
v 2.031178 0.166192 -1.147689
v 2.044725 0.063887 -1.592538
v 2.046954 0.055549 -2.045079
v 1.129959 0.079511 -1.583884
v 1.580850 0.098484 -1.589794
v 1.131292 0.020700 -1.134294
v 1.569515 0.109263 -1.142013
v 1.136364 -0.028461 -0.681818
v 1.580719 0.072649 -0.683643
vn -0.0091 1.9748 -0.3953
vn -0.0832 1.9986 -0.0420
vn -0.1940 1.9936 -0.0462
vn -0.1368 1.9948 -0.1169
vn -0.0766 1.9964 -0.1283
vn -0.0346 1.9978 -0.1118
vn -0.0342 1.9889 -0.2611
vn -0.0332 1.9595 -0.4997
vn 0.2479 1.9326 -0.5938
vn 0.1028 1.9634 -0.4651
vn -0.1265 1.9729 -0.3901
vn -0.1412 1.9937 0.1402
vn -0.4419 1.9638 0.1706
vn -0.6363 1.9335 0.0618
vn -0.6656 1.9274 0.0524
vn -0.6385 1.9334 0.0422
vn -0.6015 1.9412 0.0127
vn -0.5805 1.9453 0.0031
vn -0.5741 1.9465 -0.0163
vn -0.4391 1.9654 -0.1471
vn -0.2018 1.9834 -0.2498
vn -0.3237 1.9495 0.4547
vn -0.3432 1.9764 0.1692
vn 0.0358 1.9978 -0.1104
vn 0.3357 1.9816 -0.0412
vn 0.4820 1.9622 -0.0421
vn 0.5609 1.9489 -0.0249
vn 0.5814 1.9452 -0.0033
vn 0.4385 1.9661 0.1328
vn 0.1752 1.9904 -0.1711
vn -0.0608 1.9907 -0.2332
vn -0.2396 1.9095 0.7037
vn -0.0432 1.9852 -0.3006
vn 0.3583 1.9499 -0.4256
vn 0.4066 1.9727 -0.0644
vn 0.2920 1.9859 -0.0531
vn 0.2168 1.9924 -0.0228
vn 0.1916 1.9941 -0.0027
vn 0.2170 1.9820 0.2549
vn 0.0702 1.9967 0.1256
vn -0.1638 1.9952 -0.0565
vn -0.1020 1.8841 0.8325
vn -0.0821 1.9250 -0.6734
vn 0.0045 1.9547 -0.5290
vn 0.0003 2.0000 -0.0003
vn -0.0000 2.0000 -0.0000
vn 0.1132 1.9959 0.1132
vn 0.3387 1.9759 0.1870
vn 0.2251 1.9837 0.2256
vn -0.0803 1.8535 0.9357
vn -0.0631 1.8876 -0.8238
vn 0.0049 1.9562 -0.5205
vn 0.0267 1.9995 0.0475
vn -0.0180 1.9562 0.5198
vn -0.0709 1.8152 1.0473
vn -0.0926 1.8535 -0.9347
vn -0.0220 1.9533 -0.5369
vn -0.0816 1.9973 0.1024
vn -0.1437 1.9441 0.5690
vn 0.1371 1.8244 1.0153
vn 0.2136 1.8474 -0.9337
vn 0.0865 1.9624 -0.4747
vn -0.0471 1.9993 0.0471
vn -0.2906 1.9631 0.3797
vn -0.3347 1.9555 0.4036
vn 0.2404 1.8977 0.7518
vn 0.3301 1.8786 -0.7918
vn 0.1168 1.9856 -0.2753
vn -0.0116 2.0000 0.0116
vn -0.0175 1.9999 -0.0057
vn -0.0059 1.9308 0.6521
vn -0.3322 1.9467 -0.4673
vn -0.4788 1.9529 -0.2484
vn -0.2760 1.9856 -0.1149
vn -0.3236 1.9776 0.1862
vn -0.5466 1.9512 0.0487
vn 0.0595 1.9022 0.7698
vn -0.0800 1.9956 -0.1443
vn -0.2157 1.9780 -0.3002
vn -0.4184 1.9710 -0.0708
vn -0.4827 1.9511 0.2628
vn -0.5673 1.9346 0.2831
vn 0.0794 1.9331 0.6364
vn 0.0889 1.9951 0.1503
vn -0.3113 1.9840 -0.0534
vn -0.4681 1.9643 0.0472
vn -0.3324 1.9814 0.0740
vn 0.0192 1.9936 0.1987
vn 0.5139 1.9553 0.1089
vn 0.7341 1.8893 -0.3656
vn 0.4318 1.9491 -0.3569
vn 0.0591 1.9994 0.0021
vn 0.0455 1.9899 -0.2466
vn -0.0780 1.9742 -0.3930
vn -0.7078 1.9170 -0.0833
vn -0.8724 1.8665 0.2127
vn -0.6454 1.9321 0.0285
vn -0.0059 2.0000 -0.0059
vn -0.6411 1.9188 0.2938
vn -0.1221 1.9901 0.2165
vn -0.3705 1.9737 0.1609
vn -0.1531 1.9575 0.4893
vn 0.0321 1.9881 -0.2702
vn 0.1198 1.9968 0.0770
vt 0.009831 0.994951
vt 0.006489 0.006011
vt 0.999487 0.992897
vt 0.999900 0.002126
vt 0.909482 0.993259
vt 0.819336 0.993482
vt 0.729439 0.994667
vt 0.639223 0.995473
vt 0.549098 0.995666
vt 0.459055 0.995616
vt 0.369107 0.995456
vt 0.279266 0.995035
vt 0.189437 0.994293
vt 0.099687 0.994213
vt 0.009093 0.905094
vt 0.008088 0.815269
vt 0.006360 0.725420
vt 0.003590 0.635700
vt 0.001248 0.545866
vt 0.000100 0.455804
vt 0.002983 0.365656
vt 0.005773 0.276104
vt 0.006402 0.186457
vt 0.005931 0.096555
vt 0.097469 0.006993
vt 0.189462 0.007594
vt 0.279363 0.006678
vt 0.369296 0.005930
vt 0.459152 0.005496
vt 0.548759 0.004538
vt 0.638658 0.002573
vt 0.729903 0.000697
vt 0.818905 0.000100
vt 0.908226 0.001148
vt 0.999493 0.092259
vt 0.999802 0.182397
vt 0.999900 0.272421
vt 0.998975 0.362493
vt 0.998296 0.452419
vt 0.997923 0.542324
vt 0.997842 0.632389
vt 0.998342 0.722593
vt 0.998631 0.812554
vt 0.999102 0.902866
vt 0.099605 0.903649
vt 0.190418 0.901831
vt 0.280290 0.901763
vt 0.370030 0.902461
vt 0.459584 0.903009
vt 0.549141 0.903250
vt 0.638724 0.903041
vt 0.727943 0.902742
vt 0.818140 0.902833
vt 0.909055 0.903174
vt 0.100760 0.811711
vt 0.190757 0.811445
vt 0.280987 0.811580
vt 0.370656 0.811715
vt 0.460025 0.811501
vt 0.549219 0.811409
vt 0.638299 0.811238
vt 0.728302 0.811773
vt 0.818051 0.812157
vt 0.908554 0.812863
vt 0.101530 0.721178
vt 0.193545 0.721147
vt 0.282911 0.721105
vt 0.371287 0.721691
vt 0.460222 0.721940
vt 0.549248 0.722008
vt 0.638295 0.721974
vt 0.727829 0.721939
vt 0.817375 0.722464
vt 0.907850 0.722509
vt 0.100628 0.632382
vt 0.193540 0.632811
vt 0.282806 0.632794
vt 0.371507 0.632900
vt 0.460317 0.632977
vt 0.549260 0.632962
vt 0.638353 0.632890
vt 0.727487 0.632548
vt 0.816374 0.632054
vt 0.907563 0.632486
vt 0.099428 0.543836
vt 0.193192 0.544316
vt 0.282868 0.544252
vt 0.371516 0.544189
vt 0.460285 0.544123
vt 0.549151 0.544014
vt 0.638099 0.543816
vt 0.727120 0.543490
vt 0.816069 0.543166
vt 0.907657 0.542363
vt 0.099212 0.456846
vt 0.192763 0.455987
vt 0.282749 0.455669
vt 0.371400 0.455470
vt 0.460157 0.455314
vt 0.548957 0.455147
vt 0.637802 0.454892
vt 0.726712 0.454525
vt 0.815308 0.454030
vt 0.907319 0.452550
vt 0.098941 0.369887
vt 0.192863 0.367300
vt 0.282372 0.367010
vt 0.371181 0.366711
vt 0.459985 0.366514
vt 0.548730 0.366378
vt 0.637397 0.366106
vt 0.726044 0.365575
vt 0.815652 0.363592
vt 0.906511 0.363101
vt 0.099400 0.278451
vt 0.193682 0.278810
vt 0.282072 0.278299
vt 0.370923 0.277830
vt 0.459833 0.277739
vt 0.548583 0.277876
vt 0.907717 0.273195
vt 0.100394 0.187289
vt 0.192482 0.187834
vt 0.281352 0.188509
vt 0.370140 0.189856
vt 0.459429 0.189805
vt 0.548170 0.190330
vt 0.908696 0.182111
vt 0.100505 0.097781
vt 0.190093 0.097558
vt 0.280492 0.098699
vt 0.370211 0.098907
vt 0.460077 0.098511
vt 0.551223 0.098531
vt 0.639965 0.098905
vt 0.727508 0.096223
vt 0.818178 0.091876
vt 0.908090 0.091714
vt 0.815810 0.274756
vt 0.816352 0.184784
vt 0.725678 0.276811
vt 0.727435 0.187810
vt 0.636514 0.277811
vt 0.637340 0.188804
s 0
f 138/138/1 34/34/1 4/4/1 35/35/1
f 5/5/2 54/54/2 44/44/2 3/3/2
f 54/54/3 64/64/3 43/43/3 44/44/3
f 64/64/4 74/74/4 42/42/4 43/43/4
f 74/74/5 84/84/5 41/41/5 42/42/5
f 84/84/6 94/94/6 40/40/6 41/41/6
f 94/94/7 104/104/7 39/39/7 40/40/7
f 104/104/8 114/114/8 38/38/8 39/39/8
f 114/114/9 121/121/9 37/37/9 38/38/9
f 121/121/10 128/128/10 36/36/10 37/37/10
f 128/128/11 138/138/11 35/35/11 36/36/11
f 1/1/12 15/15/12 45/45/12 14/14/12
f 14/14/13 45/45/13 46/46/13 13/13/13
f 13/13/14 46/46/14 47/47/14 12/12/14
f 12/12/15 47/47/15 48/48/15 11/11/15
f 11/11/16 48/48/16 49/49/16 10/10/16
f 10/10/17 49/49/17 50/50/17 9/9/17
f 9/9/18 50/50/18 51/51/18 8/8/18
f 8/8/19 51/51/19 52/52/19 7/7/19
f 7/7/20 52/52/20 53/53/20 6/6/20
f 6/6/21 53/53/21 54/54/21 5/5/21
f 15/15/22 16/16/22 55/55/22 45/45/22
f 45/45/23 55/55/23 56/56/23 46/46/23
f 46/46/24 56/56/24 57/57/24 47/47/24
f 47/47/25 57/57/25 58/58/25 48/48/25
f 48/48/26 58/58/26 59/59/26 49/49/26
f 49/49/27 59/59/27 60/60/27 50/50/27
f 50/50/28 60/60/28 61/61/28 51/51/28
f 51/51/29 61/61/29 62/62/29 52/52/29
f 52/52/30 62/62/30 63/63/30 53/53/30
f 53/53/31 63/63/31 64/64/31 54/54/31
f 16/16/32 17/17/32 65/65/32 55/55/32
f 55/55/33 65/65/33 66/66/33 56/56/33
f 56/56/34 66/66/34 67/67/34 57/57/34
f 57/57/35 67/67/35 68/68/35 58/58/35
f 58/58/36 68/68/36 69/69/36 59/59/36
f 59/59/37 69/69/37 70/70/37 60/60/37
f 60/60/38 70/70/38 71/71/38 61/61/38
f 61/61/39 71/71/39 72/72/39 62/62/39
f 62/62/40 72/72/40 73/73/40 63/63/40
f 63/63/41 73/73/41 74/74/41 64/64/41
f 17/17/42 18/18/42 75/75/42 65/65/42
f 65/65/43 75/75/43 76/76/43 66/66/43
f 66/66/44 76/76/44 77/77/44 67/67/44
f 67/67/45 77/77/45 78/78/45 68/68/45
f 68/68/46 78/78/46 79/79/46 69/69/46
f 69/69/46 79/79/46 80/80/46 70/70/46
f 70/70/46 80/80/46 81/81/46 71/71/46
f 71/71/47 81/81/47 82/82/47 72/72/47
f 72/72/48 82/82/48 83/83/48 73/73/48
f 73/73/49 83/83/49 84/84/49 74/74/49
f 18/18/50 19/19/50 85/85/50 75/75/50
f 75/75/51 85/85/51 86/86/51 76/76/51
f 76/76/52 86/86/52 87/87/52 77/77/52
f 77/77/46 87/87/46 88/88/46 78/78/46
f 78/78/46 88/88/46 89/89/46 79/79/46
f 79/79/46 89/89/46 90/90/46 80/80/46
f 80/80/46 90/90/46 91/91/46 81/81/46
f 81/81/46 91/91/46 92/92/46 82/82/46
f 82/82/53 92/92/53 93/93/53 83/83/53
f 83/83/54 93/93/54 94/94/54 84/84/54
f 19/19/55 20/20/55 95/95/55 85/85/55
f 85/85/56 95/95/56 96/96/56 86/86/56
f 86/86/57 96/96/57 97/97/57 87/87/57
f 87/87/46 97/97/46 98/98/46 88/88/46
f 88/88/46 98/98/46 99/99/46 89/89/46
f 89/89/46 99/99/46 100/100/46 90/90/46
f 90/90/46 100/100/46 101/101/46 91/91/46
f 91/91/46 101/101/46 102/102/46 92/92/46
f 92/92/58 102/102/58 103/103/58 93/93/58
f 93/93/59 103/103/59 104/104/59 94/94/59
f 20/20/60 21/21/60 105/105/60 95/95/60
f 95/95/61 105/105/61 106/106/61 96/96/61
f 96/96/62 106/106/62 107/107/62 97/97/62
f 97/97/46 107/107/46 108/108/46 98/98/46
f 98/98/46 108/108/46 109/109/46 99/99/46
f 99/99/46 109/109/46 110/110/46 100/100/46
f 100/100/46 110/110/46 111/111/46 101/101/46
f 101/101/63 111/111/63 112/112/63 102/102/63
f 102/102/64 112/112/64 113/113/64 103/103/64
f 103/103/65 113/113/65 114/114/65 104/104/65
f 21/21/66 22/22/66 115/115/66 105/105/66
f 105/105/67 115/115/67 116/116/67 106/106/67
f 106/106/68 116/116/68 117/117/68 107/107/68
f 107/107/46 117/117/46 118/118/46 108/108/46
f 108/108/69 118/118/69 119/119/69 109/109/69
f 109/109/70 119/119/70 120/120/70 110/110/70
f 22/22/71 23/23/71 122/122/71 115/115/71
f 115/115/72 122/122/72 123/123/72 116/116/72
f 116/116/73 123/123/73 124/124/73 117/117/73
f 117/117/74 124/124/74 125/125/74 118/118/74
f 118/118/75 125/125/75 126/126/75 119/119/75
f 119/119/76 126/126/76 127/127/76 120/120/76
f 23/23/77 24/24/77 129/129/77 122/122/77
f 122/122/78 129/129/78 130/130/78 123/123/78
f 123/123/79 130/130/79 131/131/79 124/124/79
f 124/124/80 131/131/80 132/132/80 125/125/80
f 125/125/81 132/132/81 133/133/81 126/126/81
f 126/126/82 133/133/82 134/134/82 127/127/82
f 24/24/83 2/2/83 25/25/83 129/129/83
f 129/129/84 25/25/84 26/26/84 130/130/84
f 130/130/85 26/26/85 27/27/85 131/131/85
f 131/131/86 27/27/86 28/28/86 132/132/86
f 132/132/87 28/28/87 29/29/87 133/133/87
f 133/133/88 29/29/88 30/30/88 134/134/88
f 134/134/89 30/30/89 31/31/89 135/135/89
f 135/135/90 31/31/90 32/32/90 136/136/90
f 136/136/91 32/32/91 33/33/91 137/137/91
f 137/137/92 33/33/92 34/34/92 138/138/92
f 137/137/93 138/138/93 128/128/93 140/140/93
f 136/136/94 137/137/94 140/140/94 142/142/94
f 135/135/95 136/136/95 142/142/95 144/144/95
f 135/135/96 144/144/96 127/127/96 134/134/96
f 127/127/97 144/144/97 143/143/97 120/120/97
f 111/111/98 110/110/98 120/120/98 143/143/98
f 142/142/99 141/141/99 143/143/99 144/144/99
f 111/111/100 143/143/100 141/141/100 112/112/100
f 140/140/101 139/139/101 141/141/101 142/142/101
f 112/112/102 141/141/102 139/139/102 113/113/102
f 128/128/103 121/121/103 139/139/103 140/140/103
f 113/113/104 139/139/104 121/121/104 114/114/104
