# Blender 3.1.0
# www.blender.org
o Tree
v -0.018120 -0.222127 -0.209275
v -0.018120 0.080172 -0.209275
v 0.094192 -0.222127 -0.162754
v 0.094192 0.080172 -0.162754
v 0.140713 -0.222127 -0.050442
v 0.140713 0.080172 -0.050442
v 0.094192 -0.222127 0.061871
v 0.094192 0.080172 0.061871
v -0.018120 -0.222127 0.108392
v -0.018120 0.080172 0.108392
v -0.130433 -0.222127 0.061871
v -0.130433 0.080172 0.061871
v -0.176954 -0.222127 -0.050442
v -0.176954 0.080172 -0.050442
v -0.130433 -0.222127 -0.162754
v -0.130433 0.080172 -0.162754
v 0.088077 0.607020 -0.119423
v -0.024235 0.607020 -0.165944
v 0.134599 0.607020 -0.007110
v 0.088077 0.607020 0.105202
v -0.024235 0.607020 0.151723
v -0.136547 0.607020 0.105202
v -0.183069 0.607020 -0.007110
v -0.136547 0.607020 -0.119423
v 0.082125 1.133515 -0.195169
v -0.030187 1.133515 -0.241690
v 0.128646 1.133515 -0.082856
v 0.082125 1.133515 0.029456
v -0.030187 1.133515 0.075978
v -0.142500 1.133515 0.029456
v -0.189021 1.133515 -0.082856
v -0.142500 1.133515 -0.195169
v 0.667701 1.140011 -0.780744
v -0.030187 1.140011 -1.069819
v 0.956776 1.140011 -0.082856
v 0.667701 1.140011 0.615032
v -0.030187 1.140011 0.904107
v -0.728075 1.140011 0.615032
v -1.017150 1.140011 -0.082856
v -0.728076 1.140011 -0.780744
v 0.263316 1.948128 -0.376360
v -0.030187 1.948128 -0.497933
v 0.384890 1.948128 -0.082856
v 0.263316 1.948128 0.210647
v -0.030187 1.948128 0.332221
v -0.323691 1.948128 0.210647
v -0.445264 1.948128 -0.082856
v -0.323691 1.948128 -0.376360
v 0.516680 1.956269 -0.701864
v -0.033935 1.956269 -0.929936
v 0.744752 1.956269 -0.151249
v 0.516680 1.956269 0.399366
v -0.033936 1.956269 0.627439
v -0.584550 1.956269 0.399366
v -0.812623 1.956269 -0.151249
v -0.584550 1.956269 -0.701864
v -0.033935 3.179056 -0.151249
vn 0.3827 -0.0000 -0.9239
vn 0.9239 -0.0000 -0.3827
vn 0.9239 -0.0000 0.3827
vn 0.3827 -0.0000 0.9239
vn -0.3827 -0.0000 0.9239
vn -0.9239 -0.0000 0.3827
vn -0.9231 -0.0422 0.3823
vn -0.9239 -0.0000 -0.3827
vn -0.3827 -0.0000 -0.9239
vn -0.0000 -1.0000 -0.0000
vn -0.3796 0.1275 0.9163
vn 0.3817 -0.0714 0.9215
vn -0.9237 0.0207 -0.3826
vn 0.9231 0.0422 -0.3823
vn -0.3815 -0.0802 0.9209
vn -0.3817 0.0714 -0.9215
vn 0.3815 0.0802 -0.9209
vn 0.9237 -0.0207 0.3826
vn -0.0078 -1.0000 -0.0032
vn 0.9219 0.0654 0.3819
vn 0.3796 -0.1275 -0.9163
vn -0.3791 -0.1360 -0.9153
vn -0.9230 0.0446 0.3823
vn 0.3791 0.1360 0.9153
vn 0.9230 -0.0446 -0.3823
vn -0.9219 -0.0654 -0.3819
vn 0.7733 0.5472 -0.3203
vn -0.0032 -1.0000 0.0078
vn 0.0078 -1.0000 0.0032
vn 0.0032 -1.0000 -0.0078
vn -0.0032 -1.0000 -0.0078
vn -0.0078 -1.0000 0.0032
vn 0.0032 -1.0000 0.0078
vn 0.0078 -1.0000 -0.0032
vn -0.0078 -0.9998 -0.0188
vn -0.7733 0.5472 -0.3203
vn -0.3203 0.5472 0.7733
vn 0.7733 0.5472 0.3203
vn 0.3203 0.5472 -0.7733
vn -0.3203 0.5472 -0.7733
vn -0.7733 0.5472 0.3203
vn 0.3203 0.5472 0.7733
vn 0.7963 0.5071 0.3298
vn -0.0240 -0.9997 0.0099
vn 0.0115 -0.9996 0.0277
vn 0.0210 -0.9997 -0.0087
vn -0.0206 -0.9998 -0.0085
vn -0.0114 -0.9996 0.0274
vn 0.0245 -0.9996 0.0102
vn 0.0078 -0.9998 -0.0189
vn 0.3298 0.5071 -0.7963
vn -0.3298 0.5071 -0.7963
vn -0.7963 0.5071 0.3298
vn 0.3298 0.5071 0.7963
vn 0.7963 0.5071 -0.3298
vn -0.7963 0.5071 -0.3298
vn -0.3298 0.5071 0.7963
vt 0.450422 0.905472
vt 0.454906 0.905472
vt 0.451543 0.905517
vt 0.454906 0.903230
vt 0.450422 0.903230
vt 0.450983 0.905472
vt 0.450783 0.905832
vt 0.450983 0.903230
vt 0.451543 0.905472
vt 0.450467 0.906593
vt 0.451543 0.903230
vt 0.452104 0.905472
vt 0.450783 0.907354
vt 0.452104 0.903230
vt 0.452664 0.905472
vt 0.451543 0.907669
vt 0.452664 0.903230
vt 0.453225 0.905472
vt 0.452304 0.907354
vt 0.453225 0.903230
vt 0.453785 0.905472
vt 0.452619 0.906593
vt 0.453785 0.903230
vt 0.454346 0.905472
vt 0.452304 0.905832
vt 0.454346 0.903230
vt 0.450983 0.903230
vt 0.450422 0.903230
vt 0.454906 0.903230
vt 0.451543 0.903230
vt 0.452104 0.903230
vt 0.452664 0.903230
vt 0.453225 0.903230
vt 0.453785 0.903230
vt 0.454346 0.903230
vt 0.450983 0.903230
vt 0.752952 0.909487
vt 0.450422 0.903230
vt 0.454906 0.903230
vt 0.752392 0.909487
vt 0.756875 0.909487
vt 0.451543 0.903230
vt 0.753513 0.909487
vt 0.452104 0.903230
vt 0.754073 0.909487
vt 0.452664 0.903230
vt 0.754634 0.909487
vt 0.453225 0.903230
vt 0.755194 0.909487
vt 0.453785 0.903230
vt 0.755755 0.909487
vt 0.454346 0.903230
vt 0.756315 0.909487
vt 0.752952 0.909487
vt 0.752392 0.909487
vt 0.756875 0.909487
vt 0.753513 0.909487
vt 0.754073 0.909487
vt 0.754634 0.909487
vt 0.755194 0.909487
vt 0.755755 0.909487
vt 0.756315 0.909487
vt 0.752952 0.909487
vt 0.756875 0.909487
vt 0.752392 0.909487
vt 0.753513 0.909487
vt 0.754073 0.909487
vt 0.754634 0.909487
vt 0.755194 0.909487
vt 0.755755 0.909487
vt 0.756315 0.909487
vt 0.752952 0.909487
vt 0.752392 0.909487
vt 0.756875 0.909487
vt 0.753513 0.909487
vt 0.754073 0.909487
vt 0.754634 0.909487
vt 0.755194 0.909487
vt 0.755755 0.909487
vt 0.756315 0.909487
vt 0.754073 0.909487
vt 0.752952 0.909487
vt 0.756875 0.909487
vt 0.755755 0.909487
vt 0.754634 0.909487
vt 0.753513 0.909487
vt 0.756315 0.909487
vt 0.755194 0.909487
s 0
f 1/1/1 2/5/1 4/8/1 3/6/1
f 3/6/2 4/8/2 6/11/2 5/9/2
f 5/9/3 6/11/3 8/14/3 7/12/3
f 7/12/4 8/14/4 10/17/4 9/15/4
f 9/15/5 10/17/5 12/20/5 11/18/5
f 11/18/6 12/20/6 14/23/6 13/21/6
f 14/23/7 12/20/7 22/33/7 23/34/7
f 13/21/8 14/23/8 16/26/8 15/24/8
f 15/24/9 16/26/9 2/4/9 1/2/9
f 1/3/10 3/7/10 5/10/10 7/13/10 9/16/10 11/19/10 13/22/10 15/25/10
f 22/33/11 21/32/11 29/46/11 30/48/11
f 10/17/12 8/14/12 20/31/12 21/32/12
f 16/26/13 14/23/13 23/34/13 24/35/13
f 6/11/14 4/8/14 17/27/14 19/30/14
f 12/20/15 10/17/15 21/32/15 22/33/15
f 2/4/16 16/26/16 24/35/16 18/29/16
f 4/8/17 2/5/17 18/28/17 17/27/17
f 8/14/18 6/11/18 19/30/18 20/31/18
f 32/53/19 31/51/19 39/61/19 40/62/19
f 20/31/20 19/30/20 27/42/20 28/44/20
f 17/27/21 18/28/21 26/38/21 25/36/21
f 18/29/22 24/35/22 32/52/22 26/39/22
f 23/34/23 22/33/23 30/48/23 31/50/23
f 21/32/24 20/31/24 28/44/24 29/46/24
f 19/30/25 17/27/25 25/36/25 27/42/25
f 24/35/26 23/34/26 31/50/26 32/52/26
f 35/57/27 33/54/27 41/63/27 43/66/27
f 30/49/28 29/47/28 37/59/28 38/60/28
f 28/45/29 27/43/29 35/57/29 36/58/29
f 25/37/30 26/40/30 34/55/30 33/54/30
f 26/41/31 32/53/31 40/62/31 34/56/31
f 31/51/32 30/49/32 38/60/32 39/61/32
f 29/47/33 28/45/33 36/58/33 37/59/33
f 27/43/34 25/37/34 33/54/34 35/57/34
f 42/64/35 48/71/35 56/80/35 50/74/35
f 40/62/36 39/61/36 47/70/36 48/71/36
f 38/60/37 37/59/37 45/68/37 46/69/37
f 36/58/38 35/57/38 43/66/38 44/67/38
f 33/54/39 34/55/39 42/65/39 41/63/39
f 34/56/40 40/62/40 48/71/40 42/64/40
f 39/61/41 38/60/41 46/69/41 47/70/41
f 37/59/42 36/58/42 44/67/42 45/68/42
f 52/76/43 51/75/43 57/81/43
f 47/70/44 46/69/44 54/78/44 55/79/44
f 45/68/45 44/67/45 52/76/45 53/77/45
f 43/66/46 41/63/46 49/72/46 51/75/46
f 48/71/47 47/70/47 55/79/47 56/80/47
f 46/69/48 45/68/48 53/77/48 54/78/48
f 44/67/49 43/66/49 51/75/49 52/76/49
f 41/63/50 42/65/50 50/73/50 49/72/50
f 49/72/51 50/73/51 57/82/51
f 50/74/52 56/80/52 57/83/52
f 55/79/53 54/78/53 57/84/53
f 53/77/54 52/76/54 57/85/54
f 51/75/55 49/72/55 57/86/55
f 56/80/56 55/79/56 57/87/56
f 54/78/57 53/77/57 57/88/57
