# Blender 3.1.0
# www.blender.org
o Plain
v -2.500000 0.000000 2.500000
v 2.500000 0.000000 2.500000
v -2.500000 0.000000 -2.500000
v 2.500000 0.000000 -2.500000
v -2.500000 0.000000 -2.045455
v -2.500000 0.000000 -1.590909
v -2.500000 0.000000 -1.136364
v -2.500000 0.000000 -0.681818
v -2.500000 0.000000 -0.227273
v -2.500000 0.000000 0.227273
v -2.500000 0.000000 0.681818
v -2.500000 0.000000 1.136364
v -2.500000 0.000000 1.590909
v -2.500000 0.000000 2.045455
v -2.045455 0.000000 2.500000
v -1.590909 0.000000 2.500000
v -1.136364 0.000000 2.500000
v -0.681818 0.000000 2.500000
v -0.227273 0.000000 2.500000
v 0.227273 0.000000 2.500000
v 0.681818 0.000000 2.500000
v 1.136364 0.000000 2.500000
v 1.590909 0.000000 2.500000
v 2.045455 0.000000 2.500000
v 2.500000 0.000000 2.045455
v 2.500000 0.000000 1.590909
v 2.500000 0.000000 1.136364
v 2.500000 0.000000 0.681818
v 2.500000 0.000000 0.227273
v 2.500000 0.000000 -0.227273
v 2.500000 0.000000 -0.681818
v 2.500000 0.000000 -1.136364
v 2.500000 0.000000 -1.590909
v 2.500000 0.000000 -2.045455
v 2.045455 0.000000 -2.500000
v 1.590909 0.000000 -2.500000
v 1.136364 0.000000 -2.500000
v 0.681818 0.000000 -2.500000
v 0.227273 0.000000 -2.500000
v -0.227273 0.000000 -2.500000
v -0.681818 0.000000 -2.500000
v -1.136364 0.000000 -2.500000
v -1.590909 0.000000 -2.500000
v -2.045455 0.000000 -2.500000
v -2.045455 0.000000 2.045455
v -2.045455 0.000000 1.590909
v -2.045455 0.000000 1.136364
v -2.045455 0.000000 0.681818
v -2.045455 0.000000 0.227273
v -2.045455 0.000000 -0.227273
v -2.045455 0.000000 -0.681818
v -2.045455 0.000000 -1.136364
v -2.045455 0.000000 -1.590909
v -2.045455 0.000000 -2.045455
v -1.590909 0.000000 2.045455
v -1.590909 0.000000 1.590909
v -1.590909 0.000000 1.136364
v -1.590909 0.000000 0.681818
v -1.590909 0.000000 0.227273
v -1.590909 0.000000 -0.227273
v -1.590909 0.000000 -0.681818
v -1.590909 0.000000 -1.136364
v -1.590909 0.000000 -1.590909
v -1.590909 0.000000 -2.045455
v -1.136364 0.000000 2.045455
v -1.136364 0.000000 1.590909
v -1.136364 0.000000 1.136364
v -1.136364 0.000000 0.681818
v -1.136364 0.000000 0.227273
v -1.136364 0.000000 -0.227273
v -1.136364 0.000000 -0.681818
v -1.136364 0.000000 -1.136364
v -1.136364 0.000000 -1.590909
v -1.136364 0.000000 -2.045455
v -0.681818 0.000000 2.045455
v -0.681818 0.000000 1.590909
v -0.681818 0.000000 1.136364
v -0.681818 0.000000 0.681818
v -0.681818 0.000000 0.227273
v -0.681818 0.000000 -0.227273
v -0.681818 0.000000 -0.681818
v -0.681818 0.000000 -1.136364
v -0.681818 0.000000 -1.590909
v -0.681818 0.000000 -2.045455
v -0.227273 0.000000 2.045455
v -0.227273 0.000000 1.590909
v -0.227273 0.000000 1.136364
v -0.227273 0.000000 0.681818
v -0.227273 0.000000 0.227273
v -0.227273 0.000000 -0.227273
v -0.227273 0.000000 -0.681818
v -0.227273 0.000000 -1.136364
v -0.227273 0.000000 -1.590909
v -0.227273 0.000000 -2.045455
v 0.227273 0.000000 2.045455
v 0.227273 0.000000 1.590909
v 0.227273 0.000000 1.136364
v 0.227273 0.000000 0.681818
v 0.227273 0.000000 0.227273
v 0.227273 0.000000 -0.227273
v 0.227273 0.000000 -0.681818
v 0.227273 0.000000 -1.136364
v 0.227273 0.000000 -1.590909
v 0.227273 0.000000 -2.045455
v 0.681818 0.000000 2.045455
v 0.681818 0.000000 1.590909
v 0.681818 0.000000 1.136364
v 0.681818 0.000000 0.681818
v 0.681818 0.000000 0.227273
v 0.681818 0.000000 -0.227273
v 0.681818 0.000000 -0.681818
v 0.681818 0.000000 -1.136364
v 0.681818 0.000000 -1.590909
v 0.681818 0.000000 -2.045455
v 1.136364 0.000000 2.045455
v 1.136364 0.000000 1.590909
v 1.136364 0.000000 1.136364
v 1.136364 0.000000 0.681818
v 1.136364 0.000000 0.227273
v 1.136364 0.000000 -0.227273
v 1.136364 0.000000 -2.045455
v 1.590909 0.000000 2.045455
v 1.590909 0.000000 1.590909
v 1.590909 0.000000 1.136364
v 1.590909 0.000000 0.681818
v 1.590909 0.000000 0.227273
v 1.590909 0.000000 -0.227273
v 1.590909 0.000000 -2.045455
v 2.045455 0.000000 2.045455
v 2.045455 0.000000 1.590909
v 2.045455 0.000000 1.136364
v 2.045455 0.000000 0.681818
v 2.045455 0.000000 0.227273
v 2.045455 0.000000 -0.227273
v 2.045455 0.000000 -0.681818
v 2.045455 0.000000 -1.136364
v 2.045455 0.000000 -1.590909
v 2.045455 0.000000 -2.045455
v 1.136364 0.000000 -1.590909
v 1.590909 0.000000 -1.590909
v 1.136364 0.000000 -1.136364
v 1.590909 0.000000 -1.136364
v 1.136364 0.000000 -0.681818
v 1.590909 0.000000 -0.681818
vn -0.0000 2.0000 -0.0000
vt 0.000100 0.999900
vt 0.000100 0.000100
vt 0.999900 0.999900
vt 0.999900 0.000100
vt 0.909009 0.999900
vt 0.818118 0.999900
vt 0.727227 0.999900
vt 0.636336 0.999900
vt 0.545445 0.999900
vt 0.454554 0.999900
vt 0.363664 0.999900
vt 0.272773 0.999900
vt 0.181882 0.999900
vt 0.090991 0.999900
vt 0.000100 0.909009
vt 0.000100 0.818118
vt 0.000100 0.727227
vt 0.000100 0.636336
vt 0.000100 0.545446
vt 0.000100 0.454555
vt 0.000100 0.363664
vt 0.000100 0.272773
vt 0.000100 0.181882
vt 0.000100 0.090991
vt 0.090991 0.000100
vt 0.181882 0.000100
vt 0.272773 0.000100
vt 0.363664 0.000100
vt 0.454555 0.000100
vt 0.545446 0.000100
vt 0.636336 0.000100
vt 0.727227 0.000100
vt 0.818118 0.000100
vt 0.909009 0.000100
vt 0.999900 0.090991
vt 0.999900 0.181882
vt 0.999900 0.272773
vt 0.999900 0.363664
vt 0.999900 0.454555
vt 0.999900 0.545446
vt 0.999900 0.636336
vt 0.999900 0.727227
vt 0.999900 0.818118
vt 0.999900 0.909009
vt 0.090991 0.909009
vt 0.181882 0.909009
vt 0.272773 0.909009
vt 0.363664 0.909009
vt 0.454555 0.909009
vt 0.545445 0.909009
vt 0.636336 0.909009
vt 0.727227 0.909009
vt 0.818118 0.909009
vt 0.909009 0.909009
vt 0.090991 0.818118
vt 0.181882 0.818118
vt 0.272773 0.818118
vt 0.363664 0.818118
vt 0.454555 0.818118
vt 0.545445 0.818118
vt 0.636336 0.818118
vt 0.727227 0.818118
vt 0.818118 0.818118
vt 0.909009 0.818118
vt 0.090991 0.727227
vt 0.181882 0.727227
vt 0.272773 0.727227
vt 0.363664 0.727227
vt 0.454555 0.727227
vt 0.545445 0.727227
vt 0.636336 0.727227
vt 0.727227 0.727227
vt 0.818118 0.727227
vt 0.909009 0.727227
vt 0.090991 0.636336
vt 0.181882 0.636336
vt 0.272773 0.636336
vt 0.363664 0.636336
vt 0.454555 0.636336
vt 0.545445 0.636336
vt 0.636336 0.636336
vt 0.727227 0.636336
vt 0.818118 0.636336
vt 0.909009 0.636336
vt 0.090991 0.545446
vt 0.181882 0.545446
vt 0.272773 0.545446
vt 0.363664 0.545445
vt 0.454555 0.545445
vt 0.545445 0.545445
vt 0.636336 0.545445
vt 0.727227 0.545445
vt 0.818118 0.545445
vt 0.909009 0.545446
vt 0.090991 0.454555
vt 0.181882 0.454555
vt 0.272773 0.454555
vt 0.363664 0.454555
vt 0.454555 0.454555
vt 0.545445 0.454555
vt 0.636336 0.454555
vt 0.727227 0.454555
vt 0.818118 0.454555
vt 0.909009 0.454555
vt 0.090991 0.363664
vt 0.181882 0.363664
vt 0.272773 0.363664
vt 0.363664 0.363664
vt 0.454555 0.363664
vt 0.545445 0.363664
vt 0.636336 0.363664
vt 0.727227 0.363664
vt 0.818118 0.363664
vt 0.909009 0.363664
vt 0.090991 0.272773
vt 0.181882 0.272773
vt 0.272773 0.272773
vt 0.363664 0.272773
vt 0.454555 0.272773
vt 0.545445 0.272773
vt 0.909009 0.272773
vt 0.090991 0.181882
vt 0.181882 0.181882
vt 0.272773 0.181882
vt 0.363664 0.181882
vt 0.454555 0.181882
vt 0.545445 0.181882
vt 0.909009 0.181882
vt 0.090991 0.090991
vt 0.181882 0.090991
vt 0.272773 0.090991
vt 0.363664 0.090991
vt 0.454555 0.090991
vt 0.545446 0.090991
vt 0.636336 0.090991
vt 0.727227 0.090991
vt 0.818118 0.090991
vt 0.909009 0.090991
vt 0.818118 0.272773
vt 0.818118 0.181882
vt 0.727227 0.272773
vt 0.727227 0.181882
vt 0.636336 0.272773
vt 0.636336 0.181882
s 0
f 138/138/1 34/34/1 4/4/1 35/35/1
f 5/5/1 54/54/1 44/44/1 3/3/1
f 54/54/1 64/64/1 43/43/1 44/44/1
f 64/64/1 74/74/1 42/42/1 43/43/1
f 74/74/1 84/84/1 41/41/1 42/42/1
f 84/84/1 94/94/1 40/40/1 41/41/1
f 94/94/1 104/104/1 39/39/1 40/40/1
f 104/104/1 114/114/1 38/38/1 39/39/1
f 114/114/1 121/121/1 37/37/1 38/38/1
f 121/121/1 128/128/1 36/36/1 37/37/1
f 128/128/1 138/138/1 35/35/1 36/36/1
f 1/1/1 15/15/1 45/45/1 14/14/1
f 14/14/1 45/45/1 46/46/1 13/13/1
f 13/13/1 46/46/1 47/47/1 12/12/1
f 12/12/1 47/47/1 48/48/1 11/11/1
f 11/11/1 48/48/1 49/49/1 10/10/1
f 10/10/1 49/49/1 50/50/1 9/9/1
f 9/9/1 50/50/1 51/51/1 8/8/1
f 8/8/1 51/51/1 52/52/1 7/7/1
f 7/7/1 52/52/1 53/53/1 6/6/1
f 6/6/1 53/53/1 54/54/1 5/5/1
f 15/15/1 16/16/1 55/55/1 45/45/1
f 45/45/1 55/55/1 56/56/1 46/46/1
f 46/46/1 56/56/1 57/57/1 47/47/1
f 47/47/1 57/57/1 58/58/1 48/48/1
f 48/48/1 58/58/1 59/59/1 49/49/1
f 49/49/1 59/59/1 60/60/1 50/50/1
f 50/50/1 60/60/1 61/61/1 51/51/1
f 51/51/1 61/61/1 62/62/1 52/52/1
f 52/52/1 62/62/1 63/63/1 53/53/1
f 53/53/1 63/63/1 64/64/1 54/54/1
f 16/16/1 17/17/1 65/65/1 55/55/1
f 55/55/1 65/65/1 66/66/1 56/56/1
f 56/56/1 66/66/1 67/67/1 57/57/1
f 57/57/1 67/67/1 68/68/1 58/58/1
f 58/58/1 68/68/1 69/69/1 59/59/1
f 59/59/1 69/69/1 70/70/1 60/60/1
f 60/60/1 70/70/1 71/71/1 61/61/1
f 61/61/1 71/71/1 72/72/1 62/62/1
f 62/62/1 72/72/1 73/73/1 63/63/1
f 63/63/1 73/73/1 74/74/1 64/64/1
f 17/17/1 18/18/1 75/75/1 65/65/1
f 65/65/1 75/75/1 76/76/1 66/66/1
f 66/66/1 76/76/1 77/77/1 67/67/1
f 67/67/1 77/77/1 78/78/1 68/68/1
f 68/68/1 78/78/1 79/79/1 69/69/1
f 69/69/1 79/79/1 80/80/1 70/70/1
f 70/70/1 80/80/1 81/81/1 71/71/1
f 71/71/1 81/81/1 82/82/1 72/72/1
f 72/72/1 82/82/1 83/83/1 73/73/1
f 73/73/1 83/83/1 84/84/1 74/74/1
f 18/18/1 19/19/1 85/85/1 75/75/1
f 75/75/1 85/85/1 86/86/1 76/76/1
f 76/76/1 86/86/1 87/87/1 77/77/1
f 77/77/1 87/87/1 88/88/1 78/78/1
f 78/78/1 88/88/1 89/89/1 79/79/1
f 79/79/1 89/89/1 90/90/1 80/80/1
f 80/80/1 90/90/1 91/91/1 81/81/1
f 81/81/1 91/91/1 92/92/1 82/82/1
f 82/82/1 92/92/1 93/93/1 83/83/1
f 83/83/1 93/93/1 94/94/1 84/84/1
f 19/19/1 20/20/1 95/95/1 85/85/1
f 85/85/1 95/95/1 96/96/1 86/86/1
f 86/86/1 96/96/1 97/97/1 87/87/1
f 87/87/1 97/97/1 98/98/1 88/88/1
f 88/88/1 98/98/1 99/99/1 89/89/1
f 89/89/1 99/99/1 100/100/1 90/90/1
f 90/90/1 100/100/1 101/101/1 91/91/1
f 91/91/1 101/101/1 102/102/1 92/92/1
f 92/92/1 102/102/1 103/103/1 93/93/1
f 93/93/1 103/103/1 104/104/1 94/94/1
f 20/20/1 21/21/1 105/105/1 95/95/1
f 95/95/1 105/105/1 106/106/1 96/96/1
f 96/96/1 106/106/1 107/107/1 97/97/1
f 97/97/1 107/107/1 108/108/1 98/98/1
f 98/98/1 108/108/1 109/109/1 99/99/1
f 99/99/1 109/109/1 110/110/1 100/100/1
f 100/100/1 110/110/1 111/111/1 101/101/1
f 101/101/1 111/111/1 112/112/1 102/102/1
f 102/102/1 112/112/1 113/113/1 103/103/1
f 103/103/1 113/113/1 114/114/1 104/104/1
f 21/21/1 22/22/1 115/115/1 105/105/1
f 105/105/1 115/115/1 116/116/1 106/106/1
f 106/106/1 116/116/1 117/117/1 107/107/1
f 107/107/1 117/117/1 118/118/1 108/108/1
f 108/108/1 118/118/1 119/119/1 109/109/1
f 109/109/1 119/119/1 120/120/1 110/110/1
f 22/22/1 23/23/1 122/122/1 115/115/1
f 115/115/1 122/122/1 123/123/1 116/116/1
f 116/116/1 123/123/1 124/124/1 117/117/1
f 117/117/1 124/124/1 125/125/1 118/118/1
f 118/118/1 125/125/1 126/126/1 119/119/1
f 119/119/1 126/126/1 127/127/1 120/120/1
f 23/23/1 24/24/1 129/129/1 122/122/1
f 122/122/1 129/129/1 130/130/1 123/123/1
f 123/123/1 130/130/1 131/131/1 124/124/1
f 124/124/1 131/131/1 132/132/1 125/125/1
f 125/125/1 132/132/1 133/133/1 126/126/1
f 126/126/1 133/133/1 134/134/1 127/127/1
f 24/24/1 2/2/1 25/25/1 129/129/1
f 129/129/1 25/25/1 26/26/1 130/130/1
f 130/130/1 26/26/1 27/27/1 131/131/1
f 131/131/1 27/27/1 28/28/1 132/132/1
f 132/132/1 28/28/1 29/29/1 133/133/1
f 133/133/1 29/29/1 30/30/1 134/134/1
f 134/134/1 30/30/1 31/31/1 135/135/1
f 135/135/1 31/31/1 32/32/1 136/136/1
f 136/136/1 32/32/1 33/33/1 137/137/1
f 137/137/1 33/33/1 34/34/1 138/138/1
f 137/137/1 138/138/1 128/128/1 140/140/1
f 136/136/1 137/137/1 140/140/1 142/142/1
f 135/135/1 136/136/1 142/142/1 144/144/1
f 135/135/1 144/144/1 127/127/1 134/134/1
f 127/127/1 144/144/1 143/143/1 120/120/1
f 111/111/1 110/110/1 120/120/1 143/143/1
f 142/142/1 141/141/1 143/143/1 144/144/1
f 111/111/1 143/143/1 141/141/1 112/112/1
f 140/140/1 139/139/1 141/141/1 142/142/1
f 112/112/1 141/141/1 139/139/1 113/113/1
f 128/128/1 121/121/1 139/139/1 140/140/1
f 113/113/1 139/139/1 121/121/1 114/114/1
